  0
SECTION
  2
HEADER
  9
$ACADVER
  1
AC1027
  9
$INSUNITS
 70
6
  9
$DWGCODEPAGE
  3
ANSI_1252
  0
ENDSEC
  0
SECTION
  2
TABLES
  0
TABLE
  2
LAYER
 70
4
  0
LAYER
  2
0
 70
0
 62
7
  6
Continuous
  0
LAYER
  2
Đất ở
 70
0
 62
3
  6
Continuous
  0
LAYER
  2
HIDDEN
 70
0
 62
-2
  6
Continuous
  0
LAYER
  2
HATCH
 70
0
 62
4
  6
Continuous
  0
ENDTAB
  0
TABLE
  2
STYLE
 70
1
  0
STYLE
  2
Standard
 70
0
 40
0
 41
1
  3
arial.ttf
  4

  0
ENDTAB
  0
ENDSEC
  0
SECTION
  2
BLOCKS
  0
BLOCK
  8
0
  2
*Model_Space
 70
0
 10
0
 20
0
 30
0
  3
*Model_Space
  0
ENDBLK
  8
0
  0
BLOCK
  8
0
  2
*Paper_Space
 70
0
 10
0
 20
0
 30
0
  3
*Paper_Space
  0
ENDBLK
  8
0
  0
ENDSEC
  0
SECTION
  2
ENTITIES
  0
LWPOLYLINE
  5
100
  8
Đất ở
100
AcDbPolyline
 90
4
 70
1
 10
0
 20
0
 10
10
 20
0
 10
10
 20
10
 42
1
 10
0
 20
10
  0
LWPOLYLINE
  5
101
  8
Đất ở
 62
1
100
AcDbPolyline
 90
2
 70
0
 10
20
 20
0
 42
-1
 10
30
 20
0
  0
LINE
  5
102
  8
HIDDEN
 10
0
 20
0
 30
0
 11
5
 21
5
 31
0
  0
CIRCLE
  5
103
  8
0
 62
5
 10
50
 20
50
 30
0
 40
5
  0
ARC
  5
104
  8
0
 10
50
 20
50
 30
0
 40
10
 50
0
 51
90
  0
POINT
  5
105
  8
0
 10
7
 20
8
 30
0
  0
ELLIPSE
  5
106
  8
0
 10
100
 20
0
 30
0
 11
20
 21
0
 31
0
 40
0.5
 41
0
 42
6.283185307179586
  0
TEXT
  5
107
  8
Đất ở
100
AcDbText
 10
0
 20
0
 30
0
 40
2.5
  1
Xin chào Việt Nam
 50
30
  7
Standard
 72
1
 11
40
 21
40
 31
0
100
AcDbText
 73
0
  0
MTEXT
  5
108
  8
0
100
AcDbMText
 10
60
 20
70
 30
0
 40
3
 71
5
 72
1
  3
{\fArial|b1|i0|c0|p34;BẢN ĐỒ QUY 
  1
HOẠCH}\PDòng 2
  7
Standard
 11
0
 21
1
 31
0
  0
HATCH
  5
109
  8
HATCH
 62
3
100
AcDbHatch
 10
0
 20
0
 30
0
210
0
220
0
230
1
  2
SOLID
 70
1
 71
0
 91
3
 92
3
 72
0
 73
1
 93
4
 10
0
 20
0
 10
100
 20
0
 10
100
 20
100
 10
0
 20
100
 97
0
 92
2
 72
0
 73
1
 93
4
 10
25
 20
25
 10
75
 20
25
 10
75
 20
75
 10
25
 20
75
 97
0
 92
1
 93
2
 72
2
 10
300
 20
50
 40
20
 50
0
 51
180
 73
1
 72
2
 10
300
 20
50
 40
20
 50
180
 51
360
 73
1
 97
0
 75
0
 76
1
 98
0
  0
HATCH
  5
10A
  8
HATCH
100
AcDbHatch
 10
0
 20
0
 30
0
210
0
220
0
230
1
  2
ANSI31
 70
0
 71
0
 91
1
 92
3
 72
0
 73
1
 93
3
 10
0
 20
0
 10
10
 20
0
 10
0
 20
10
 97
0
 75
0
 76
1
 52
0
 41
1
 77
0
 78
0
 98
0
  0
WIPEOUT
  5
10B
  8
0
100
AcDbWipeout
 10
0
 20
0
 30
0
  0
OLE2FRAME
  5
10C
  8
0
  0
LINE
  5
10D
 67
1
  8
0
 10
-500
 20
-500
 30
0
 11
-600
 21
-600
 31
0
  0
SOLID
  5
10E
  8
0
 62
1
 10
0
 20
0
 30
0
 11
1
 21
0
 31
0
 12
0
 22
1
 32
0
 13
1
 23
1
 33
0
  0
LINE
  5
10F
  8
0
 62
30
420
16744448
 10
0
 20
0
 30
0
 11
1
 21
1
 31
0
  0
ENDSEC
  0
EOF
